<?xml version="1.0" encoding="UTF-8" standalone="no"?>
<!DOCTYPE svg PUBLIC "-//W3C//DTD SVG 1.1//EN"
 "http://www.w3.org/Graphics/SVG/1.1/DTD/svg11.dtd">
<!-- Generated by graphviz version 2.40.1 (20161225.0304)
 -->
<!-- Title: dependencies Pages: 1 -->
<svg width="531pt" height="284pt"
 viewBox="0.00 0.00 531.00 284.00" xmlns="http://www.w3.org/2000/svg" xmlns:xlink="http://www.w3.org/1999/xlink">
<g id="graph0" class="graph" transform="scale(1 1) rotate(0) translate(4 280)">
<title>dependencies</title>
<polygon fill="#ffffff" stroke="transparent" points="-4,4 -4,-280 527,-280 527,4 -4,4"/>
<text text-anchor="start" x="240.5091" y="-42.4" font-family="sans-serif" font-weight="bold" font-size="14.00" fill="#000000">Legend</text>
<polygon fill="#ffffb3" stroke="transparent" points="27.5,-10 27.5,-30 47.5,-30 47.5,-10 27.5,-10"/>
<text text-anchor="start" x="51.129" y="-15.4" font-family="sans-serif" font-size="14.00" fill="#000000"> &#160;Declarations</text>
<polygon fill="#8dd3c7" stroke="transparent" points="140.5,-10 140.5,-30 160.5,-30 160.5,-10 140.5,-10"/>
<text text-anchor="start" x="164.2251" y="-15.4" font-family="sans-serif" font-size="14.00" fill="#000000"> &#160;Module</text>
<polygon fill="#80b1d3" stroke="transparent" points="226.5,-10 226.5,-30 246.5,-30 246.5,-10 226.5,-10"/>
<text text-anchor="start" x="250.2812" y="-15.4" font-family="sans-serif" font-size="14.00" fill="#000000"> &#160;Bootstrap</text>
<polygon fill="#fdb462" stroke="transparent" points="323.5,-10 323.5,-30 343.5,-30 343.5,-10 323.5,-10"/>
<text text-anchor="start" x="347.1732" y="-15.4" font-family="sans-serif" font-size="14.00" fill="#000000"> &#160;Providers</text>
<polygon fill="#fb8072" stroke="transparent" points="419.5,-10 419.5,-30 439.5,-30 439.5,-10 419.5,-10"/>
<text text-anchor="start" x="443.2258" y="-15.4" font-family="sans-serif" font-size="14.00" fill="#000000"> &#160;Exports</text>
<g id="clust1" class="cluster">
<title>cluster_YearCalendarModule</title>
<polygon fill="none" stroke="#000000" stroke-dasharray="1,5" points="8,-70 8,-268 515,-268 515,-70 8,-70"/>
</g>
<g id="clust2" class="cluster">
<title>cluster_YearCalendarModule_declarations</title>
<polygon fill="none" stroke="#000000" points="21,-78 21,-130 502,-130 502,-78 21,-78"/>
</g>
<g id="clust7" class="cluster">
<title>cluster_YearCalendarModule_exports</title>
<polygon fill="none" stroke="#000000" points="16,-208 16,-260 507,-260 507,-208 16,-208"/>
</g>
<!-- HeatmapColorDirective -->
<g id="node1" class="node">
<title>HeatmapColorDirective</title>
<polygon fill="#ffffb3" stroke="#000000" points="494.003,-122 343.997,-122 343.997,-86 494.003,-86 494.003,-122"/>
<text text-anchor="middle" x="419" y="-99.8" font-family="Times,serif" font-size="14.00" fill="#000000">HeatmapColorDirective</text>
</g>
<!-- YearCalendarModule -->
<g id="node4" class="node">
<title>YearCalendarModule</title>
<polygon fill="#8dd3c7" stroke="#000000" points="334.7781,-187 331.7781,-191 310.7781,-191 307.7781,-187 197.2219,-187 197.2219,-151 334.7781,-151 334.7781,-187"/>
<text text-anchor="middle" x="266" y="-164.8" font-family="Times,serif" font-size="14.00" fill="#000000">YearCalendarModule</text>
</g>
<!-- HeatmapColorDirective&#45;&gt;YearCalendarModule -->
<g id="edge1" class="edge">
<title>HeatmapColorDirective&#45;&gt;YearCalendarModule</title>
<path fill="none" stroke="#000000" d="M343.6617,-104C335.5502,-104 330.1704,-104 330.1704,-104 330.1704,-104 330.1704,-140.8939 330.1704,-140.8939"/>
<polygon fill="#000000" stroke="#000000" points="326.6705,-140.8938 330.1704,-150.8939 333.6705,-140.8939 326.6705,-140.8938"/>
</g>
<!-- WeekNumberPipe -->
<g id="node2" class="node">
<title>WeekNumberPipe</title>
<polygon fill="#ffffb3" stroke="#000000" points="325.9047,-122 206.0953,-122 206.0953,-86 325.9047,-86 325.9047,-122"/>
<text text-anchor="middle" x="266" y="-99.8" font-family="Times,serif" font-size="14.00" fill="#000000">WeekNumberPipe</text>
</g>
<!-- WeekNumberPipe&#45;&gt;YearCalendarModule -->
<g id="edge2" class="edge">
<title>WeekNumberPipe&#45;&gt;YearCalendarModule</title>
<path fill="none" stroke="#000000" d="M266,-122.1061C266,-122.1061 266,-140.991 266,-140.991"/>
<polygon fill="#000000" stroke="#000000" points="262.5001,-140.9909 266,-150.991 269.5001,-140.991 262.5001,-140.9909"/>
</g>
<!-- YearCalendarComponent -->
<g id="node3" class="node">
<title>YearCalendarComponent</title>
<polygon fill="#ffffb3" stroke="#000000" points="188.5604,-122 29.4396,-122 29.4396,-86 188.5604,-86 188.5604,-122"/>
<text text-anchor="middle" x="109" y="-99.8" font-family="Times,serif" font-size="14.00" fill="#000000">YearCalendarComponent</text>
</g>
<!-- YearCalendarComponent&#45;&gt;YearCalendarModule -->
<g id="edge3" class="edge">
<title>YearCalendarComponent&#45;&gt;YearCalendarModule</title>
<path fill="none" stroke="#000000" d="M188.922,-104C196.7303,-104 201.8296,-104 201.8296,-104 201.8296,-104 201.8296,-140.8939 201.8296,-140.8939"/>
<polygon fill="#000000" stroke="#000000" points="198.3296,-140.8938 201.8296,-150.8939 205.3296,-140.8939 198.3296,-140.8938"/>
</g>
<!-- HeatmapColorDirective  -->
<g id="node5" class="node">
<title>HeatmapColorDirective </title>
<polygon fill="#fb8072" stroke="#000000" points="499.0022,-252 344.9978,-252 344.9978,-216 499.0022,-216 499.0022,-252"/>
<text text-anchor="middle" x="422" y="-229.8" font-family="Times,serif" font-size="14.00" fill="#000000">HeatmapColorDirective </text>
</g>
<!-- YearCalendarModule&#45;&gt;HeatmapColorDirective  -->
<g id="edge4" class="edge">
<title>YearCalendarModule&#45;&gt;HeatmapColorDirective </title>
<path fill="none" stroke="#000000" stroke-dasharray="5,2" d="M331.0454,-187.1061C331.0454,-206.3391 331.0454,-234 331.0454,-234 331.0454,-234 334.8595,-234 334.8595,-234"/>
<polygon fill="#000000" stroke="#000000" points="334.8595,-237.5001 344.8595,-234 334.8595,-230.5001 334.8595,-237.5001"/>
</g>
<!-- WeekNumberPipe  -->
<g id="node6" class="node">
<title>WeekNumberPipe </title>
<polygon fill="#fb8072" stroke="#000000" points="327.404,-252 204.596,-252 204.596,-216 327.404,-216 327.404,-252"/>
<text text-anchor="middle" x="266" y="-229.8" font-family="Times,serif" font-size="14.00" fill="#000000">WeekNumberPipe </text>
</g>
<!-- YearCalendarModule&#45;&gt;WeekNumberPipe  -->
<g id="edge5" class="edge">
<title>YearCalendarModule&#45;&gt;WeekNumberPipe </title>
<path fill="none" stroke="#000000" stroke-dasharray="5,2" d="M266,-187.1061C266,-187.1061 266,-205.991 266,-205.991"/>
<polygon fill="#000000" stroke="#000000" points="262.5001,-205.9909 266,-215.991 269.5001,-205.991 262.5001,-205.9909"/>
</g>
<!-- YearCalendarComponent  -->
<g id="node7" class="node">
<title>YearCalendarComponent </title>
<polygon fill="#fb8072" stroke="#000000" points="186.061,-252 23.939,-252 23.939,-216 186.061,-216 186.061,-252"/>
<text text-anchor="middle" x="105" y="-229.8" font-family="Times,serif" font-size="14.00" fill="#000000">YearCalendarComponent </text>
</g>
<!-- YearCalendarModule&#45;&gt;YearCalendarComponent  -->
<g id="edge6" class="edge">
<title>YearCalendarModule&#45;&gt;YearCalendarComponent </title>
<path fill="none" stroke="#000000" stroke-dasharray="5,2" d="M200.9546,-187.1061C200.9546,-206.3391 200.9546,-234 200.9546,-234 200.9546,-234 196.3811,-234 196.3811,-234"/>
<polygon fill="#000000" stroke="#000000" points="196.3812,-230.5001 186.3811,-234 196.3811,-237.5001 196.3812,-230.5001"/>
</g>
</g>
</svg>
