<?xml version="1.0" encoding="UTF-8" standalone="no"?>
<!DOCTYPE svg PUBLIC "-//W3C//DTD SVG 1.1//EN"
 "http://www.w3.org/Graphics/SVG/1.1/DTD/svg11.dtd">
<!-- Generated by graphviz version 5.0.0 (20220707.1540)
 -->
<!-- Title: dependencies Pages: 1 -->
<svg width="531pt" height="247pt"
 viewBox="0.00 0.00 531.00 246.80" xmlns="http://www.w3.org/2000/svg" xmlns:xlink="http://www.w3.org/1999/xlink">
<g id="graph0" class="graph" transform="scale(1 1) rotate(0) translate(4 242.8)">
<title>dependencies</title>
<polygon fill="white" stroke="transparent" points="-4,4 -4,-242.8 527,-242.8 527,4 -4,4"/>
<text text-anchor="middle" x="261.5" y="-8.2" font-family="sans-serif" font-size="14.00">dependencies</text>
<g id="clust1" class="cluster">
<title>cluster_YearCalendarModule</title>
<polygon fill="none" stroke="black" stroke-dasharray="1,5" points="8,-32.8 8,-230.8 515,-230.8 515,-32.8 8,-32.8"/>
</g>
<g id="clust2" class="cluster">
<title>cluster_YearCalendarModule_declarations</title>
<polygon fill="none" stroke="black" points="21,-40.8 21,-92.8 502,-92.8 502,-40.8 21,-40.8"/>
</g>
<g id="clust7" class="cluster">
<title>cluster_YearCalendarModule_exports</title>
<polygon fill="none" stroke="black" points="16,-170.8 16,-222.8 507,-222.8 507,-170.8 16,-170.8"/>
</g>
<!-- HeatmapColorDirective -->
<g id="node1" class="node">
<title>HeatmapColorDirective</title>
<polygon fill="#ffffb3" stroke="black" points="494,-84.8 344,-84.8 344,-48.8 494,-48.8 494,-84.8"/>
<text text-anchor="middle" x="419" y="-62.6" font-family="Times,serif" font-size="14.00">HeatmapColorDirective</text>
</g>
<!-- YearCalendarModule -->
<g id="node4" class="node">
<title>YearCalendarModule</title>
<polygon fill="#8dd3c7" stroke="black" points="334.78,-149.8 331.78,-153.8 310.78,-153.8 307.78,-149.8 197.22,-149.8 197.22,-113.8 334.78,-113.8 334.78,-149.8"/>
<text text-anchor="middle" x="266" y="-127.6" font-family="Times,serif" font-size="14.00">YearCalendarModule</text>
</g>
<!-- HeatmapColorDirective&#45;&gt;YearCalendarModule -->
<g id="edge1" class="edge">
<title>HeatmapColorDirective&#45;&gt;YearCalendarModule</title>
<path fill="none" stroke="black" d="M343.66,-66.8C335.55,-66.8 330.17,-66.8 330.17,-66.8 330.17,-66.8 330.17,-103.69 330.17,-103.69"/>
<polygon fill="black" stroke="black" points="326.67,-103.69 330.17,-113.69 333.67,-103.69 326.67,-103.69"/>
</g>
<!-- WeekNumberPipe -->
<g id="node2" class="node">
<title>WeekNumberPipe</title>
<polygon fill="#ffffb3" stroke="black" points="325.91,-84.8 206.09,-84.8 206.09,-48.8 325.91,-48.8 325.91,-84.8"/>
<text text-anchor="middle" x="266" y="-62.6" font-family="Times,serif" font-size="14.00">WeekNumberPipe</text>
</g>
<!-- WeekNumberPipe&#45;&gt;YearCalendarModule -->
<g id="edge2" class="edge">
<title>WeekNumberPipe&#45;&gt;YearCalendarModule</title>
<path fill="none" stroke="black" d="M266,-84.91C266,-84.91 266,-103.79 266,-103.79"/>
<polygon fill="black" stroke="black" points="262.5,-103.79 266,-113.79 269.5,-103.79 262.5,-103.79"/>
</g>
<!-- YearCalendarComponent -->
<g id="node3" class="node">
<title>YearCalendarComponent</title>
<polygon fill="#ffffb3" stroke="black" points="188.56,-84.8 29.44,-84.8 29.44,-48.8 188.56,-48.8 188.56,-84.8"/>
<text text-anchor="middle" x="109" y="-62.6" font-family="Times,serif" font-size="14.00">YearCalendarComponent</text>
</g>
<!-- YearCalendarComponent&#45;&gt;YearCalendarModule -->
<g id="edge3" class="edge">
<title>YearCalendarComponent&#45;&gt;YearCalendarModule</title>
<path fill="none" stroke="black" d="M188.92,-66.8C196.73,-66.8 201.83,-66.8 201.83,-66.8 201.83,-66.8 201.83,-103.69 201.83,-103.69"/>
<polygon fill="black" stroke="black" points="198.33,-103.69 201.83,-113.69 205.33,-103.69 198.33,-103.69"/>
</g>
<!-- HeatmapColorDirective  -->
<g id="node5" class="node">
<title>HeatmapColorDirective </title>
<polygon fill="#fb8072" stroke="black" points="499,-214.8 345,-214.8 345,-178.8 499,-178.8 499,-214.8"/>
<text text-anchor="middle" x="422" y="-192.6" font-family="Times,serif" font-size="14.00">HeatmapColorDirective </text>
</g>
<!-- YearCalendarModule&#45;&gt;HeatmapColorDirective  -->
<g id="edge4" class="edge">
<title>YearCalendarModule&#45;&gt;HeatmapColorDirective </title>
<path fill="none" stroke="black" stroke-dasharray="5,2" d="M331.05,-149.91C331.05,-169.14 331.05,-196.8 331.05,-196.8 331.05,-196.8 334.86,-196.8 334.86,-196.8"/>
<polygon fill="black" stroke="black" points="334.86,-200.3 344.86,-196.8 334.86,-193.3 334.86,-200.3"/>
</g>
<!-- WeekNumberPipe  -->
<g id="node6" class="node">
<title>WeekNumberPipe </title>
<polygon fill="#fb8072" stroke="black" points="327.41,-214.8 204.59,-214.8 204.59,-178.8 327.41,-178.8 327.41,-214.8"/>
<text text-anchor="middle" x="266" y="-192.6" font-family="Times,serif" font-size="14.00">WeekNumberPipe </text>
</g>
<!-- YearCalendarModule&#45;&gt;WeekNumberPipe  -->
<g id="edge5" class="edge">
<title>YearCalendarModule&#45;&gt;WeekNumberPipe </title>
<path fill="none" stroke="black" stroke-dasharray="5,2" d="M266,-149.91C266,-149.91 266,-168.79 266,-168.79"/>
<polygon fill="black" stroke="black" points="262.5,-168.79 266,-178.79 269.5,-168.79 262.5,-168.79"/>
</g>
<!-- YearCalendarComponent  -->
<g id="node7" class="node">
<title>YearCalendarComponent </title>
<polygon fill="#fb8072" stroke="black" points="186.06,-214.8 23.94,-214.8 23.94,-178.8 186.06,-178.8 186.06,-214.8"/>
<text text-anchor="middle" x="105" y="-192.6" font-family="Times,serif" font-size="14.00">YearCalendarComponent </text>
</g>
<!-- YearCalendarModule&#45;&gt;YearCalendarComponent  -->
<g id="edge6" class="edge">
<title>YearCalendarModule&#45;&gt;YearCalendarComponent </title>
<path fill="none" stroke="black" stroke-dasharray="5,2" d="M200.95,-149.91C200.95,-169.14 200.95,-196.8 200.95,-196.8 200.95,-196.8 196.38,-196.8 196.38,-196.8"/>
<polygon fill="black" stroke="black" points="196.38,-193.3 186.38,-196.8 196.38,-200.3 196.38,-193.3"/>
</g>
</g>
</svg>
